<?xml version="1.0" encoding="UTF-8" standalone="no"?>
<svg
   width="114.20002"
   height="152.74701"
   clip-rule="evenodd"
   fill-rule="evenodd"
   stroke-linejoin="round"
   stroke-miterlimit="1.4142"
   version="1.1"
   xml:space="preserve"
   id="svg156"
   sodipodi:docname="logo.svg"
   xmlns:inkscape="http://www.inkscape.org/namespaces/inkscape"
   xmlns:sodipodi="http://sodipodi.sourceforge.net/DTD/sodipodi-0.dtd"
   xmlns="http://www.w3.org/2000/svg"
   xmlns:svg="http://www.w3.org/2000/svg"><sodipodi:namedview
     id="namedview158"
     pagecolor="#ffffff"
     bordercolor="#000000"
     borderopacity="0.25"
     inkscape:showpageshadow="2"
     inkscape:pageopacity="0.0"
     inkscape:pagecheckerboard="0"
     inkscape:deskcolor="#d1d1d1"
     showgrid="false" /><title
     id="title97">Unbound (DNS resolver)</title><desc
     id="desc99">DNS resolver software by NLnet Labs</desc><g
     fill-rule="nonzero"
     id="g125"
     inkscape:export-filename="icon.svg"
     inkscape:export-xdpi="96"
     inkscape:export-ydpi="96"
     transform="translate(1.23648e-5,5.0000002e-4)"><path
       d="m 87.5,6.548 v 86.4 l -29.5,17 c -0.597,0.299 -1.303,0.299 -1.9,0 l -29.5,-17 v -86.4 l -20.9,12.1 c -3.528,2.042 -5.706,5.824 -5.7,9.9 v 86.4 c 0.021,4.07 2.191,7.839 5.7,9.9 l 45.7,26.4 c 3.533,1.998 7.867,1.998 11.4,0 l 45.7,-26.4 c 3.528,-2.042 5.706,-5.824 5.7,-9.9 v -86.4 c -0.021,-4.07 -2.191,-7.839 -5.7,-9.9 z"
       fill="#2d2e83"
       id="path101" /><path
       d="m 87.5,6.548 v 86.4 l -29.5,17 c -0.597,0.299 -1.303,0.299 -1.9,0 l -29.5,-17 v -86.4 l -20.9,12.1 c -3.528,2.042 -5.706,5.824 -5.7,9.9 v 86.4 c 0.021,4.07 2.191,7.839 5.7,9.9 l 45.7,26.4 c 3.533,1.998 7.867,1.998 11.4,0 l 45.7,-26.4 c 3.528,-2.042 5.706,-5.824 5.7,-9.9 v -86.4 c -0.021,-4.07 -2.191,-7.839 -5.7,-9.9 z"
       fill="url(#vlcna)"
       id="path103"
       style="fill:url(#vlcna)" /><path
       d="m 114.2,28.548 c -0.021,-4.07 -2.191,-7.839 -5.7,-9.9 L 78.1,1.048 c -2.337,-1.398 -5.263,-1.398 -7.6,0 -2.354,1.359 -3.807,3.882 -3.8,6.6 v 66.6 c 0.021,4.07 2.191,7.839 5.7,9.9 l 36.1,20.9 c 3.528,2.042 5.706,5.824 5.7,9.9 z"
       fill="#1fc2d7"
       id="path105" /><path
       d="m 0,28.548 c 0.021,-4.07 2.191,-7.839 5.7,-9.9 l 30.5,-17.6 c 2.337,-1.398 5.263,-1.398 7.6,0 2.354,1.359 3.807,3.882 3.8,6.6 v 66.6 c -0.021,4.07 -2.191,7.839 -5.7,9.9 l -36.1,20.9 c -3.528,2.042 -5.706,5.824 -5.7,9.9 z"
       fill="#1fc2d7"
       id="path107" /></g><defs
     id="defs154"><linearGradient
       id="vlcna"
       x2="1"
       gradientTransform="matrix(114.2,0,0,114.2,1.2365e-5,79.648)"
       gradientUnits="userSpaceOnUse"><stop
         stop-color="#0d0d27"
         offset="0"
         id="stop127" /><stop
         stop-color="#10102f"
         offset=".02"
         id="stop129" /><stop
         stop-color="#1a1b4d"
         offset=".1"
         id="stop131" /><stop
         stop-color="#232365"
         offset=".19"
         id="stop133" /><stop
         stop-color="#282976"
         offset=".28"
         id="stop135" /><stop
         stop-color="#2c2d80"
         offset=".38"
         id="stop137" /><stop
         stop-color="#2d2e83"
         offset=".5"
         id="stop139" /><stop
         stop-color="#2c2d80"
         offset=".62"
         id="stop141" /><stop
         stop-color="#282976"
         offset=".72"
         id="stop143" /><stop
         stop-color="#232365"
         offset=".81"
         id="stop145" /><stop
         stop-color="#1a1b4d"
         offset=".9"
         id="stop147" /><stop
         stop-color="#10102f"
         offset=".98"
         id="stop149" /><stop
         stop-color="#0d0d27"
         offset="1"
         id="stop151" /></linearGradient></defs></svg>
