<?xml version="1.0" encoding="UTF-8"?>
<svg width="669px" height="153px" clip-rule="evenodd" fill-rule="evenodd" stroke-linejoin="round" stroke-miterlimit="1.4142" version="1.1" xml:space="preserve" xmlns="http://www.w3.org/2000/svg"><title>Unbound (DNS resolver)</title><desc>DNS resolver software by NLnet Labs</desc><g fill-rule="nonzero"><path d="m87.5 6.548v86.4l-29.5 17c-0.597 0.299-1.303 0.299-1.9 0l-29.5-17v-86.4l-20.9 12.1c-3.528 2.042-5.706 5.824-5.7 9.9v86.4c0.021 4.07 2.191 7.839 5.7 9.9l45.7 26.4c3.533 1.998 7.867 1.998 11.4 0l45.7-26.4c3.528-2.042 5.706-5.824 5.7-9.9v-86.4c-0.021-4.07-2.191-7.839-5.7-9.9l-21-12.1z" fill="#2d2e83"/><path d="m87.5 6.548v86.4l-29.5 17c-0.597 0.299-1.303 0.299-1.9 0l-29.5-17v-86.4l-20.9 12.1c-3.528 2.042-5.706 5.824-5.7 9.9v86.4c0.021 4.07 2.191 7.839 5.7 9.9l45.7 26.4c3.533 1.998 7.867 1.998 11.4 0l45.7-26.4c3.528-2.042 5.706-5.824 5.7-9.9v-86.4c-0.021-4.07-2.191-7.839-5.7-9.9l-21-12.1z" fill="url(#vlcna)"/><path d="m114.2 28.548c-0.021-4.07-2.191-7.839-5.7-9.9l-30.4-17.6c-2.337-1.398-5.263-1.398-7.6 0-2.354 1.359-3.807 3.882-3.8 6.6v66.6c0.021 4.07 2.191 7.839 5.7 9.9l36.1 20.9c3.528 2.042 5.706 5.824 5.7 9.9v-86.4z" fill="#1fc2d7"/><path d="m0 28.548c0.021-4.07 2.191-7.839 5.7-9.9l30.5-17.6c2.337-1.398 5.263-1.398 7.6 0 2.354 1.359 3.807 3.882 3.8 6.6v66.6c-0.021 4.07-2.191 7.839-5.7 9.9l-36.1 20.9c-3.528 2.042-5.706 5.824-5.7 9.9l-0.1-86.4z" fill="#1fc2d7"/><g fill="#0d0d27"><path d="m221.9 44.348v64h-11.5l-0.6-5c-7.6 3.9-15.6 6.5-22.6 6.5-10.8 0-18.7-6.1-18.6-21.3v-44.2h12.8v42.4c0 9.1 3.4 11.8 9.3 11.8 4.8 0 11.5-2 18.4-5.5v-48.7h12.8z"/><path d="m296.9 64.148v44.2h-12.8v-42.4c0-9.1-3.5-11.8-9.8-11.8-5.5 0-12.9 2-20.9 5.7v48.6h-12.8v-64h11.5l0.6 5.1c8.7-4.1 17.5-6.6 24.8-6.6 11.4 0 19.4 6 19.4 21.2z"/><path d="m349.7 42.948c19.3 0 24.5 12.8 24.6 33.6s-5.2 33.4-24.5 33.4c-7.1 0-12.8-1.7-21.9-6.8l-0.6 5.4h-11.5v-90.6h12.8v31.6c8.5-4.9 14.1-6.6 21.1-6.6zm-3.5 55.7c11.8 0 14.9-6.3 15-22.2s-3.1-22.2-14.9-22.2c-5 0-9.1 1.1-17.7 5.9v32.7c8.6 4.7 12.7 5.8 17.6 5.8z"/><path d="m448.6 76.348c0 21.3-7.2 33.5-29.8 33.5s-29.8-12.2-29.8-33.5 7.2-33.5 29.8-33.5 29.8 12.3 29.8 33.5zm-46.4 0c0 16 3.8 22.2 16.6 22.2s16.6-6.2 16.6-22.2-3.8-22.2-16.6-22.2-16.6 6.2-16.6 22.2z"/><path d="m518.2 44.348v64h-11.5l-0.6-5c-7.6 3.9-15.6 6.5-22.6 6.5-10.8 0-18.7-6.1-18.6-21.3v-44.2h12.8v42.4c0 9.1 3.4 11.8 9.3 11.8 4.8 0 11.5-2 18.4-5.5v-48.7h12.8z"/><path d="m593.2 64.148v44.2h-12.8v-42.4c0-9.1-3.5-11.8-9.8-11.8-5.5 0-12.9 2-20.9 5.7v48.6h-12.8v-64h11.5l0.6 5.1c8.7-4.1 17.5-6.6 24.8-6.6 11.4 0 19.4 6 19.4 21.2z"/><path d="m656.9 108.45-0.6-5.4c-9 5-14.6 6.8-21.9 6.8-19.3 0-24.5-12.7-24.5-33.4s5.2-33.6 24.5-33.6c7.1 0 12.6 1.7 21.2 6.5v-31.6h12.8v90.6l-11.5 0.1zm-33.9-32.1c0 15.9 3.2 22.2 15 22.2 5 0 9-1.1 17.6-5.9v-32.7c-8.8-4.8-12.8-5.9-17.6-5.9-11.8 0.1-15 6.4-15 22.3z"/></g></g><defs><linearGradient id="vlcna" x2="1" gradientTransform="matrix(114.2 0 0 114.2 1.2365e-5 79.648)" gradientUnits="userSpaceOnUse"><stop stop-color="#0d0d27" offset="0"/><stop stop-color="#10102f" offset=".02"/><stop stop-color="#1a1b4d" offset=".1"/><stop stop-color="#232365" offset=".19"/><stop stop-color="#282976" offset=".28"/><stop stop-color="#2c2d80" offset=".38"/><stop stop-color="#2d2e83" offset=".5"/><stop stop-color="#2c2d80" offset=".62"/><stop stop-color="#282976" offset=".72"/><stop stop-color="#232365" offset=".81"/><stop stop-color="#1a1b4d" offset=".9"/><stop stop-color="#10102f" offset=".98"/><stop stop-color="#0d0d27" offset="1"/></linearGradient></defs></svg>
